<svg id="logo_animated-svg" xmlns="http://www.w3.org/2000/svg" xmlns:xlink="http://www.w3.org/1999/xlink" viewBox="0 0 347.43 307.62" shape-rendering="geometricPrecision" text-rendering="geometricPrecision">
<style><![CDATA[
#logo_animated-svg-u-iris_ts {animation: logo_animated-svg-u-iris_ts__ts 500ms linear infinite normal forwards}@keyframes logo_animated-svg-u-iris_ts__ts { 0% {transform: translate(863.376587px,722.670837px) scale(1,1)} 20% {transform: translate(863.376587px,722.670837px) scale(1,0)} 50% {transform: translate(863.376587px,722.670837px) scale(1,1)} 100% {transform: translate(863.376587px,722.670837px) scale(1,1)}} #logo_animated-svg-u-pupil_ts {animation: logo_animated-svg-u-pupil_ts__ts 500ms linear infinite normal forwards}@keyframes logo_animated-svg-u-pupil_ts__ts { 0% {transform: translate(867.302979px,722.214142px) scale(1,1)} 20% {transform: translate(867.302979px,722.214142px) scale(0,0)} 50% {transform: translate(867.302979px,722.214142px) scale(1,1)} 100% {transform: translate(867.302979px,722.214142px) scale(1,1)}}
]]></style>
<g id="logo_animated-svg-u-eye" transform="translate(-710.289978-559.830017)"><path id="logo_animated-svg-u-sclera" d="M798.76,843.89c180.82,65.242,235.94-229.4,56.432-243.54-127.07-10.017-202.88,190.71-56.432,243.54Z" fill="#fff"/><g id="logo_animated-svg-u-iris_ts" transform="translate(863.376587,722.670837) scale(1,1)"><path id="logo_animated-svg-u-iris" d="M857.54,658.84c57.91.3372,94.595,109.05,3.1751,127.56-61.363,4.236-70.756-125.39-3.1751-127.56Z" transform="translate(-863.376587,-722.670837)" fill="#f35b6f" stroke="#400040" stroke-width="10" stroke-linecap="round" stroke-linejoin="round"/></g><g id="logo_animated-svg-u-pupil_ts" transform="translate(867.302979,722.214142) scale(1,1)"><path id="logo_animated-svg-u-pupil" d="M867.24,712.6c-30.55-24.543-59.555,23.341,11.156,36.042c45.996-37.243,7.2084-75.86-11.156-36.042Z" transform="translate(-867.302979,-722.214142)" fill="#fff" stroke="#400040" stroke-width="5" stroke-linecap="round" stroke-linejoin="round"/></g><path id="logo_animated-svg-u-upperlid" d="M908.5,835.44c15.311,10.054,36.866-23.646,51.053-40.049c3.8378,11.75,53.033,26.249,56.22-1.2607c2.1614-18.652-38.346-26.587-38.346-26.587s14.149-32.339,15.149-48.151c9.2305,7.5306,62.461,14.403,65.092-17.398c2.3027-27.835-63.254-14.34-63.254-14.34-2.7539-32.868-19.748-65.251-19.748-65.251s52.513-23.929,36.741-48.819c-11.859-18.716-39.729,2.7268-53.552,24.099-97.136-92.841-251.55-.52431-247.48,121.88c0,0-.2721,22.288,8.4466,25.381.54594-.26394.49082-.72271.51431-1.0091c18.891-230.33,355.45-153.04,189.19,79.609-4.079,4.9708-2.0437,10.248-.0213,11.891s-.00004,0-.00004,0L908.5,835.44Z" fill="#400040"/><path id="logo_animated-svg-u-lowerlid" d="M817.44,855.69c-2.625,6.625-.11167,10.881,3.875,11.438c3.8861.54277,6.5938-3.2188,6.5938-9.3438c0,0,10.656.375,22.188.0312c0,0-1.264,9.9303,6.5938,9.625c7.7134-.2997,2.875-11.375,2.875-11.375s16.14-1.5078,14.125-8.125c-2.2412-7.3594-16.099-1.5782-34.577-1.6376s-35.306-8.5142-38.61-5.1124c-3.7888,3.901,8.6928,13.188,16.938,14.5l-.0016-.0004Z" fill="#400040"/></g></svg>
